<!-- icon666.com - MILLIONS vector ICONS FREE --><svg fill="none" viewBox="0 0 24 24" xmlns="http://www.w3.org/2000/svg" xmlns:xlink="http://www.w3.org/1999/xlink"><linearGradient id="paint0_linear_101_68" gradientUnits="userSpaceOnUse" x1="2" x2="22" y1="12" y2="12"><stop offset="0" stop-color="#ed6d6b"></stop><stop offset="1" stop-color="#f0b076"></stop></linearGradient><path d="m12 2c-5.51385 0-10 4.48615-10 10 0 5.5139 4.48615 10 10 10 5.5139 0 10-4.4861 10-10 0-5.51385-4.4861-10-10-10zm0 1.5c4.7031 0 8.5 3.79685 8.5 8.5 0 4.7031-3.7969 8.5-8.5 8.5-4.70315 0-8.5-3.7969-8.5-8.5 0-4.70315 3.79685-8.5 8.5-8.5zm-2.5 4.5c-.5525 0-1 .4475-1 1v6c0 .5525.4475 1 1 1s1-.4475 1-1v-6c0-.5525-.4475-1-1-1zm5 0c-.5525 0-1 .4475-1 1v6c0 .5525.4475 1 1 1s1-.4475 1-1v-6c0-.5525-.4475-1-1-1z" fill="url(#paint0_linear_101_68)"></path></svg>