<!-- icon666.com - MILLIONS vector ICONS FREE --><svg fill="none" viewBox="0 0 24 24" xmlns="http://www.w3.org/2000/svg" xmlns:xlink="http://www.w3.org/1999/xlink"><linearGradient id="paint0_linear_101_70" gradientUnits="userSpaceOnUse" x1="2" x2="22" y1="12" y2="12"><stop offset="0" stop-color="#ed6d6b"></stop><stop offset="1" stop-color="#f0b076"></stop></linearGradient><path d="m12 2c-5.51385 0-10 4.48615-10 10 0 5.5139 4.48615 10 10 10 5.5139 0 10-4.4861 10-10 0-5.51385-4.4861-10-10-10zm0 1.5c4.7031 0 8.5 3.79685 8.5 8.5 0 4.7031-3.7969 8.5-8.5 8.5-4.70315 0-8.5-3.7969-8.5-8.5 0-4.70315 3.79685-8.5 8.5-8.5zm-2.29297 4.08887c-.62813.03909-1.20703.55847-1.20703 1.23925v6.34378c0 .9077 1.0291 1.5284 1.832 1.1064v-.001l6.0264-3.1718v.0009c.853-.448.8531-1.764.001-2.2128h-.001l-6.0264-3.17192c-.2007-.10549-.41559-.14584-.62497-.13281zm.29297 1.65234 5.2402 2.75879-5.2402 2.7578z" fill="url(#paint0_linear_101_70)"></path></svg>