<!-- icon666.com - MILLIONS vector ICONS FREE --><svg fill="none" viewBox="0 0 24 24" xmlns="http://www.w3.org/2000/svg" xmlns:xlink="http://www.w3.org/1999/xlink"><linearGradient id="paint0_linear_101_32" gradientUnits="userSpaceOnUse" x1="2.5" x2="21.5" y1="12.002" y2="12.002"><stop offset="0" stop-color="#ed6d6b"></stop><stop offset="1" stop-color="#f0b076"></stop></linearGradient><path d="m17.7422 1.99219c-.1493.00003-.2951.0446-.4189.128-.1238.08339-.2199.20183-.276.34014-.0561.13832-.0697.29023-.0389.43629.0307.14607.1043.27965.2113.38365l1.7198 1.71973h-13.6895c-1.515 0-2.75 1.235-2.75 2.75v8.0703l1.5-1.5v-6.5703c0-.69.56-1.25 1.25-1.25h13.6895l-1.7198 1.71973c-.072.06911-.1294.15188-.169.24348-.0396.09159-.0605.19017-.0615.28995s.0179.19876.0556.29114.0935.17631.164.24687c.0706.07055.1545.12632.2469.16404s.1914.05662.2911.05561c.0998-.00101.1984-.02193.29-.06152.0916-.03958.1744-.09705.2435-.16903l3-3c.1406-.14065.2196-.33139.2196-.53027s-.079-.38962-.2196-.53027l-3-3c-.0699-.072-.1536-.12923-.246-.16831-.0924-.03909-.1918-.05923-.2921-.05923zm3.7578 6.1875-1.5 1.5v6.57031c0 .69-.56 1.25-1.25 1.25h-13.68945l1.71972-1.7197c.1082-.1054.18207-.241.21194-.389.02987-.1481.01434-.3017-.04454-.4408-.05889-.1391-.15839-.2572-.28548-.3388-.1271-.0816-.27587-.1229-.42684-.1185-.19478.0056-.3797.0869-.51562.2265l-3 3c-.1406.1407-.21959.3314-.21959.5303s.07899.3896.21959.5303l3 3c.06911.072.15188.1294.24348.169.09159.0396.19017.0605.28995.0615s.19876-.0179.29114-.0556.17631-.0935.24687-.164c.07055-.0706.12632-.1545.16404-.2469s.05662-.1914.05561-.2911c-.00102-.0998-.02193-.1984-.06152-.29-.03958-.0916-.09705-.1744-.16903-.2435l-1.71972-1.7197h13.68945c1.515 0 2.75-1.235 2.75-2.75z" fill="url(#paint0_linear_101_32)"></path></svg>