<!-- icon666.com - MILLIONS vector ICONS FREE --><svg fill="none" viewBox="0 0 24 24" xmlns="http://www.w3.org/2000/svg" xmlns:xlink="http://www.w3.org/1999/xlink"><linearGradient id="paint0_linear_101_10" gradientUnits="userSpaceOnUse" x1="2" x2="22.511" y1="12" y2="12"><stop offset="0" stop-color="#ed6d6b"></stop><stop offset="1" stop-color="#f0b076"></stop></linearGradient><path d="m13.1084 3.05078c-.0659-.0001-.1322.00473-.1982.01367-.2644.03578-.5251.14483-.7403.33594v.00098l-4.61131 4.09863h-3.30859c-1.23375 0-2.25 1.01625-2.25 2.25v4.5c0 1.2338 1.01625 2.25 2.25 2.25h3.30859l4.61131 4.0986c.4304.3827 1.0408.439 1.503.2315.4621-.2075.8271-.7014.8271-1.2774v-15.10543c0-.57573-.364-1.06978-.8262-1.27735-.1733-.07783-.3676-.11883-.5654-.11914zm-.1084 1.61914v14.66018l-4.6582-4.1406c-.13724-.122-.31444-.1894-.49805-.1895h-3.59375c-.42325 0-.75-.3267-.75-.75v-4.5c0-.42325.32675-.75.75-.75h3.59375c.18361-.00006.36081-.06747.49805-.18945zm8.7432 4.31934c-.1981.00468-.3863.08753-.5235.23047l-1.7197 1.71977-1.7197-1.71977c-.0699-.072-.1536-.12923-.246-.16831-.0924-.03909-.1918-.05923-.2921-.05923-.1493.00004-.2951.0446-.4189.128s-.2199.20183-.276.34014c-.0561.13832-.0697.29023-.0389.4363.0307.14607.1043.27967.2113.38367l1.7198 1.7197-1.7198 1.7197c-.072.0691-.1294.1519-.169.2435s-.0605.1902-.0615.29c-.001.0997.0179.1987.0556.2911s.0935.1763.164.2469c.0706.0705.1545.1263.2469.164s.1914.0566.2911.0556c.0998-.001.1984-.0219.29-.0615s.1744-.097.2435-.169l1.7197-1.7198 1.7197 1.7198c.0691.072.1519.1294.2435.169s.1902.0605.29.0615c.0997.001.1987-.0179.2911-.0556s.1763-.0935.2469-.164c.0705-.0706.1263-.1545.164-.2469s.0566-.1914.0556-.2911c-.001-.0998-.0219-.1984-.0615-.29s-.097-.1744-.169-.2435l-1.7198-1.7197 1.7198-1.7197c.109-.1047.1839-.2399.2148-.38788s.0164-.30184-.0417-.44141c-.0581-.13958-.1569-.25835-.2837-.34075-.1267-.08239-.2754-.12457-.4265-.121z" fill="url(#paint0_linear_101_10)"></path></svg>