<!-- icon666.com - MILLIONS vector ICONS FREE --><svg fill="none" viewBox="0 0 24 24" xmlns="http://www.w3.org/2000/svg" xmlns:xlink="http://www.w3.org/1999/xlink"><linearGradient id="paint0_linear_101_50" gradientUnits="userSpaceOnUse" x1=".989" x2="23" y1="12.002" y2="12.002"><stop offset="0" stop-color="#ed6d6b"></stop><stop offset="1" stop-color="#f0b076"></stop></linearGradient><path d="m19.2422 2.49219c-.1493.00003-.2951.0446-.4189.128-.1238.08339-.2199.20183-.276.34014-.0561.13832-.0697.29023-.0389.43629.0307.14607.1043.27965.2113.38365l1.7198 1.71973h-3.0723c-1.0853 0-2.1181.47092-2.8301 1.28906l-8.20604 9.43754c-.42791.4921-1.04621.7734-1.69825.7734h-2.88281c-.09938-.0014-.19806.017-.29028.054-.09223.0371-.17617.0921-.24695.1619-.07077.0698-.12698.1529-.16534.2446s-.058111.1901-.058111.2895.019751.1978.058111.2895.09457.1748.16534.2446c.07078.0698.15472.1248.24695.1619.09222.037.1909.0554.29028.054h2.88281c1.08497 0 2.11799-.4702 2.83008-1.2891l8.20601-9.43746c.4281-.49186 1.0465-.77344 1.6983-.77344h3.0723l-1.7198 1.71973c-.072.06911-.1294.15188-.169.24348-.0396.09159-.0605.19017-.0615.28995s.0179.19876.0556.29114.0935.17631.164.24687c.0706.07055.1545.12632.2469.16404s.1914.05659.2911.05559c.0998-.001.1984-.02191.29-.0615.0916-.03958.1744-.09705.2435-.16903l3-3c.1406-.14065.2196-.33139.2196-.53027s-.079-.38962-.2196-.53027l-3-3c-.0699-.072-.1536-.12923-.246-.16831-.0924-.03909-.1918-.05923-.2921-.05923zm-17.4922 3.00781c-.415 0-.75.335-.75.75s.335.75.75.75h2.88477c.65 0 1.27031.28039 1.69531.77539l2.67969 3.08501.99513-1.14556-2.54006-2.9248c-.715-.82-1.74507-1.29004-2.83007-1.29004zm11.2402 7.6396-.9951 1.1456 2.5401 2.9248c.715.82 1.745 1.29 2.83 1.29h3.0743l-1.7198 1.7197c-.072.0691-.1294.1519-.169.2435s-.0605.1902-.0615.29c-.001.0997.0179.1987.0556.2911s.0935.1763.164.2469c.0706.0705.1545.1263.2469.164s.1914.0566.2911.0556c.0998-.001.1984-.0219.29-.0615s.1744-.097.2435-.169l3-3c.1406-.1407.2196-.3314.2196-.5303s-.079-.3896-.2196-.5303l-3-3c-.0699-.072-.1536-.1292-.246-.1683s-.1918-.0592-.2921-.0592c-.1493 0-.2951.0446-.4189.128s-.2199.2018-.276.3401-.0697.2903-.0389.4363c.0307.1461.1043.2797.2113.3837l1.7198 1.7197h-3.0743c-.65 0-1.2703-.2804-1.6953-.7754z" fill="url(#paint0_linear_101_50)"></path></svg>