<!-- icon666.com - MILLIONS vector ICONS FREE --><svg fill="none" viewBox="0 0 24 24" xmlns="http://www.w3.org/2000/svg" xmlns:xlink="http://www.w3.org/1999/xlink"><linearGradient id="paint0_linear_101_78" gradientUnits="userSpaceOnUse" x1="2" x2="22.94" y1="12" y2="12"><stop offset="0" stop-color="#ed6d6b"></stop><stop offset="1" stop-color="#f0b076"></stop></linearGradient><path d="m13.2246 3.57423c-.8826.04038-1.7246.74009-1.7246 1.72656v4.24316l-6.62207-5.58105c-.27432-.23109-.59187-.35283-.91309-.38281-.96366-.08995-1.96484.64455-1.96484 1.7207v13.39841c0 1.4349 1.78066 2.2623 2.87793 1.3379l6.62207-5.581v4.2431c0 1.4349 1.7807 2.2623 2.8779 1.3379l7.9483-6.6992c.8182-.6896.8186-1.9867.0009-2.6768-.0003 0-.0006 0-.0009 0l-7.9483-6.6982c-.3429-.28887-.7521-.40703-1.1533-.38867zm-9.46386 1.45508c.04816.01085.09946.03717.15039.08007l7.58887 6.39652v.9883l-7.58887 6.3955c-.20373.1716-.41113.0757-.41113-.1905v-13.39841c0-.13307.05155-.22385.12891-.25976.03867-.01796.08368-.02258.13183-.01172zm9.49996 0c.0482.01085.0995.03717.1504.08007l7.9483 6.69822c.1303.11.1297.2735 0 .3828l-7.9483 6.6993c-.2037.1716-.4111.0757-.4111-.1905v-13.39841c0-.13307.0516-.22385.1289-.25976.0387-.01796.0837-.02258.1318-.01172z" fill="url(#paint0_linear_101_78)"></path></svg>