<!-- icon666.com - MILLIONS vector ICONS FREE --><svg fill="none" viewBox="0 0 24 24" xmlns="http://www.w3.org/2000/svg" xmlns:xlink="http://www.w3.org/1999/xlink"><linearGradient id="paint0_linear_101_46" gradientUnits="userSpaceOnUse" x1="1.06" x2="22" y1="12" y2="12"><stop offset="0" stop-color="#ed6d6b"></stop><stop offset="1" stop-color="#f0b076"></stop></linearGradient><path d="m20.2754 3.57423c-.4012-.01836-.8104.0998-1.1533.38867l-6.6221 5.58105v-4.24316c0-1.07615-1.0012-1.81065-1.9648-1.7207-.3212.02998-.63879.15172-.9131.38281l-7.94824 6.6982c-.00033.0004-.00066.0007-.00098.001-.817723.6901-.817281 1.9862.00098 2.6758l7.94824 6.6992c1.0973.9244 2.8779.097 2.8779-1.3379v-4.2431l6.6221 5.581c1.0973.9244 2.8779.097 2.8779-1.3379v-13.39841c0-.98647-.842-1.68618-1.7246-1.72656zm-9.5361 1.45508c.0481-.01086.0931-.00624.1318.01172.0774.03591.1289.12669.1289.25976v13.39841c0 .2662-.2074.3621-.4111.1905l-7.94825-6.6983c-.12974-.1093-.13028-.2729 0-.3828l7.94825-6.69922c.0509-.0429.1022-.06922.1504-.08007zm9.5 0c.0481-.01086.0931-.00624.1318.01172.0774.03591.1289.12669.1289.25976v13.39841c0 .2662-.2074.3621-.4111.1905l-7.5889-6.3955v-.9883l7.5889-6.39652c.0509-.0429.1022-.06922.1504-.08007z" fill="url(#paint0_linear_101_46)"></path></svg>