<!-- icon666.com - MILLIONS vector ICONS FREE --><svg fill="none" viewBox="0 0 24 24" xmlns="http://www.w3.org/2000/svg" xmlns:xlink="http://www.w3.org/1999/xlink"><linearGradient id="paint0_linear_101_8" gradientUnits="userSpaceOnUse" x1="2.5" x2="21.485" y1="12" y2="12"><stop offset="0" stop-color="#ed6d6b"></stop><stop offset="1" stop-color="#f0b076"></stop></linearGradient><path d="m13.6084 3.05078c-.0659-.0001-.1322.00473-.1982.01367-.2644.03578-.5251.14483-.7403.33594v.00098l-4.61131 4.09863h-3.30859c-1.23375 0-2.25 1.01625-2.25 2.25v4.5c0 1.2338 1.01625 2.25 2.25 2.25h3.30859l4.61131 4.0986c.4304.3827 1.0408.439 1.503.2315.4621-.2075.8271-.7014.8271-1.2774v-15.10543c0-.57573-.364-1.06978-.8262-1.27735-.1733-.07783-.3676-.11883-.5654-.11914zm-.1084 1.61914v14.66018l-4.6582-4.1406c-.13724-.122-.31444-.1894-.49805-.1895h-3.59375c-.42325 0-.75-.3267-.75-.75v-4.5c0-.42325.32675-.75.75-.75h3.59375c.18361-.00006.36081-.06747.49805-.18945zm5.8779 1.32032c-.1301-.00054-.2581.03278-.3714.09669-.1134.0639-.2081.15619-.275.2678s-.1036.23869-.1065.36878c-.003.13008.028.25868.0898.37317 1.7297 3.31242 1.7297 6.49432 0 9.80662-.0474.0875-.0769.1836-.0869.2826-.0099.099-.0001.1991.029.2942.0291.0952.0769.1837.1405.2602s.1419.1396.2301.1857c.0883.046.1848.0739.284.0823.0992.0083.199-.0032.2937-.0338.0947-.0307.1823-.0799.2578-.1447.0755-.0649.1374-.1441.1819-.2331 1.9204-3.6776 1.9204-7.5157 0-11.19338-.0622-.12371-.1574-.22779-.2752-.3007-.1177-.07291-.2533-.11181-.3918-.11238zm-2.292 2.50781c-.1237.00528-.2442.04113-.3508.10435-.1065.06321-.1957.15183-.2596.25793-.064.10609-.1006.22637-.1067.35009-.0062.12372.0185.24703.0716.35892.7583 1.65926.7573 3.21056-.0039 4.87016-.0417.0896-.0653.1865-.0695.2853-.0041.0988.0113.1974.0454.2901.0341.0928.0862.1779.1533.2505s.1479.1312.2377.1725c.0899.0412.187.0643.2858.0679.0987.0036.1973-.0124.2899-.047.0925-.0346.1774-.0872.2496-.1547s.1304-.1486.1711-.2387c.9189-2.0034.9206-4.1163.0049-6.12009-.0609-.13825-.162-.25491-.2903-.33472-.1282-.0798-.2776-.11903-.4285-.11254z" fill="url(#paint0_linear_101_8)"></path></svg>